<?xml version="1.0" encoding="UTF-8" standalone="no"?>
<svg
   width="16"
   height="16"
   viewBox="0 0 16 16"
   id="svg4138"
   version="1.1"
   inkscape:version="1.2.2 (b0a8486541, 2022-12-01)"
   sodipodi:docname="icon.svg"
   inkscape:export-xdpi="3072"
   inkscape:export-ydpi="3072"
   inkscape:export-filename="icon.png"
   xmlns:inkscape="http://www.inkscape.org/namespaces/inkscape"
   xmlns:sodipodi="http://sodipodi.sourceforge.net/DTD/sodipodi-0.dtd"
   xmlns="http://www.w3.org/2000/svg"
   xmlns:svg="http://www.w3.org/2000/svg"
   xmlns:rdf="http://www.w3.org/1999/02/22-rdf-syntax-ns#"
   xmlns:cc="http://creativecommons.org/ns#"
   xmlns:dc="http://purl.org/dc/elements/1.1/">
  <defs
     id="defs4140">
    <marker
       inkscape:stockid="Arrow1Sstart"
       orient="auto"
       refY="0.0"
       refX="0.0"
       id="Arrow1Sstart"
       style="overflow:visible"
       inkscape:isstock="true">
      <path
         id="path4544"
         d="M 0.0,0.0 L 5.0,-5.0 L -12.5,0.0 L 5.0,5.0 L 0.0,0.0 z "
         style="fill-rule:evenodd;stroke:#080aa5;stroke-width:1pt;stroke-opacity:1;fill:#080aa5;fill-opacity:1"
         transform="scale(0.2) translate(6,0)" />
    </marker>
    <marker
       inkscape:stockid="Arrow1Lstart"
       orient="auto"
       refY="0.0"
       refX="0.0"
       id="Arrow1Lstart"
       style="overflow:visible"
       inkscape:isstock="true">
      <path
         id="path4532"
         d="M 0.0,0.0 L 5.0,-5.0 L -12.5,0.0 L 5.0,5.0 L 0.0,0.0 z "
         style="fill-rule:evenodd;stroke:#080aa5;stroke-width:1pt;stroke-opacity:1;fill:#080aa5;fill-opacity:1"
         transform="scale(0.8) translate(12.5,0)" />
    </marker>
  </defs>
  <sodipodi:namedview
     id="base"
     pagecolor="#ffffff"
     bordercolor="#666666"
     borderopacity="1.0"
     inkscape:pageopacity="0.0"
     inkscape:pageshadow="2"
     inkscape:zoom="32"
     inkscape:cx="6.265625"
     inkscape:cy="5.03125"
     inkscape:document-units="px"
     inkscape:current-layer="layer1"
     showgrid="true"
     units="px"
     showguides="true"
     inkscape:guide-bbox="true"
     inkscape:window-width="1920"
     inkscape:window-height="1009"
     inkscape:window-x="3832"
     inkscape:window-y="-8"
     inkscape:window-maximized="1"
     gridtolerance="6.1"
     inkscape:lockguides="false"
     objecttolerance="1"
     guidetolerance="6.3"
     inkscape:document-rotation="0"
     inkscape:showpageshadow="2"
     inkscape:pagecheckerboard="0"
     inkscape:deskcolor="#d1d1d1">
    <inkscape:grid
       type="xygrid"
       id="grid4686"
       snapvisiblegridlinesonly="true"
       enabled="true"
       visible="true"
       empspacing="5"
       spacingx="0.5"
       spacingy="0.5"
       dotted="false" />
  </sodipodi:namedview>
  <metadata
     id="metadata4143">
    <rdf:RDF>
      <cc:Work
         rdf:about="">
        <dc:format>image/svg+xml</dc:format>
        <dc:type
           rdf:resource="http://purl.org/dc/dcmitype/StillImage" />
      </cc:Work>
    </rdf:RDF>
  </metadata>
  <g
     inkscape:label="Ebene 1"
     inkscape:groupmode="layer"
     id="layer1"
     transform="translate(0,-1036.3622)"
     style="display:inline">
    <path
       id="rect2426-1"
       style="display:inline;fill:#782121;stroke-width:10.5183"
       d="M 3.0644531 1036.3622 C 2.7522401 1036.3622 2.5 1036.6145 2.5 1036.9267 L 2.5 1051.7977 C 2.5 1052.1099 2.7522401 1052.3622 3.0644531 1052.3622 L 12.935547 1052.3622 C 13.24776 1052.3622 13.5 1052.1099 13.5 1051.7977 L 13.5 1039.8505 L 10.009766 1036.3622 L 3.0644531 1036.3622 z " />
    <path
       id="rect2426"
       style="fill:#fbefef;stroke-width:10.5705"
       d="M 3.5644531 1036.8622 C 3.2518747 1036.8622 3 1037.1141 3 1037.4267 L 3 1051.2977 C 3 1051.6102 3.2518747 1051.8622 3.5644531 1051.8622 L 12.435547 1051.8622 C 12.748126 1051.8622 13 1051.6102 13 1051.2977 L 13 1039.3505 L 10.509766 1036.8622 L 3.5644531 1036.8622 z " />
    <path
       id="rect2426-0"
       style="display:inline;fill:#782121;stroke-width:11.1115"
       d="m 10.050781,1036.4013 c -0.2033076,0.081 -0.3457029,0.2787 -0.3457029,0.5117 v 2.707 c 0,0.3056 0.2451758,0.5508 0.5507809,0.5508 h 2.759766 c 0.196163,0 0.275323,-0.2222 0.298828,-0.5059 z"
       sodipodi:nodetypes="csssscc" />
    <path
       style="fill:#782121;stroke-width:1"
       d="m 7.4991813,1049.631 c -1.2011498,-0.074 -2.1916414,-0.4241 -2.4331268,-0.8601 l -0.056517,-0.1019 -0.0048,-0.7917 -0.0048,-0.7916 0.036735,0.08 c 0.3412712,0.7426 2.6270826,1.1434 4.426123,0.7761 0.7938705,-0.1621 1.3343085,-0.4415 1.4968655,-0.774 l 0.0495,-0.1008 -0.0046,0.8013 -0.0046,0.8012 -0.05652,0.1018 c -0.318221,0.5745 -1.8541667,0.9581 -3.4442464,0.8601 z m 0.047694,-2.1092 c -1.3656871,-0.09 -2.3907408,-0.4855 -2.5271789,-0.9768 -0.011737,-0.042 -0.019527,-0.3694 -0.01959,-0.8227 L 5,1044.9698 l 0.049286,0.099 c 0.1303743,0.2616 0.5415287,0.5058 1.1260835,0.6686 1.1047698,0.3078 2.617455,0.3029 3.6989915,-0.012 0.588281,-0.1714 0.968111,-0.4092 1.092471,-0.6842 l 0.03312,-0.073 0.0058,0.1527 c 0.0031,0.084 0.0029,0.4401 -4.62e-4,0.7917 -0.0073,0.7446 -0.0016,0.7192 -0.204473,0.9157 -0.327472,0.3173 -1.0228996,0.5525 -1.9470808,0.6585 -0.2483905,0.029 -1.0715116,0.051 -1.3068245,0.035 z m -0.1049276,-2.098 c -0.036727,-0.01 -0.1609661,-0.016 -0.2760924,-0.028 -0.6214882,-0.061 -1.2165253,-0.2162 -1.6221226,-0.4254 -0.1460493,-0.076 -0.2249259,-0.1319 -0.3365433,-0.2415 -0.2032144,-0.1994 -0.2072204,-0.2156 -0.2070845,-0.8381 5.73e-5,-0.2735 0.00868,-0.5186 0.019615,-0.5581 0.1259037,-0.4532 1.0522476,-0.8362 2.2982234,-0.9502 0.2943174,-0.027 1.0782813,-0.027 1.3735965,0 0.5254841,0.048 1.1437742,0.1745 1.4538012,0.2974 0.337625,0.1338 0.618662,0.3047 0.726054,0.4414 0.131937,0.1681 0.128549,0.1476 0.128549,0.7781 v 0.5723 l -0.05206,0.089 c -0.23395,0.3979 -0.9835907,0.7005 -2.0751053,0.8377 -0.1594594,0.02 -1.3002723,0.04 -1.4308305,0.026 z"
       id="path876"
       sodipodi:nodetypes="cccccccsccccccccsccccscccccccccscccccscsccccc" />
  </g>
</svg>
